HIERARCHY
ROOT Hips
{
	OFFSET 0.000000 0.000000 0.000000
	CHANNELS 6 Xposition Yposition Zposition Xrotation Yrotation Zrotation
	JOINT LeftUpLeg_virtual
	{
		OFFSET 0.000000 0.000000 0.000000
		CHANNELS 3 Xrotation Yrotation Zrotation
		JOINT LeftUpLeg
		{
			OFFSET 13.026900 -6.336304 -1.092800
			CHANNELS 3 Xrotation Yrotation Zrotation
			JOINT LeftLeg
			{
				OFFSET 0.524474 -46.096886 9.782700
				CHANNELS 3 Xrotation Yrotation Zrotation
				JOINT LeftFoot
				{
					OFFSET -0.524474 -53.427422 -12.948200
					CHANNELS 3 Xrotation Yrotation Zrotation
					JOINT LeftToeBase
					{
						OFFSET 0.192200 -14.009700 16.364100
						CHANNELS 3 Xrotation Yrotation Zrotation
						JOINT LeftToe_End
						{
							OFFSET -1.784700 -0.561700 9.474800
							CHANNELS 3 Xrotation Yrotation Zrotation
							End Site
							{
								OFFSET 0 0 0
							}
						}
					}
				}
			}
		}
	}
	JOINT RightUpLeg_virtual
	{
		OFFSET 0.000000 0.000000 0.000000
		CHANNELS 3 Xrotation Yrotation Zrotation
		JOINT RightUpLeg
		{
			OFFSET -12.883000 -6.336304 -1.092800
			CHANNELS 3 Xrotation Yrotation Zrotation
			JOINT RightLeg
			{
				OFFSET -0.524587 -46.096825 9.782800
				CHANNELS 3 Xrotation Yrotation Zrotation
				JOINT RightFoot
				{
					OFFSET 0.524587 -53.427383 -12.948300
					CHANNELS 3 Xrotation Yrotation Zrotation
					JOINT RightToeBase
					{
						OFFSET -0.192200 -14.009700 16.364100
						CHANNELS 3 Xrotation Yrotation Zrotation
						JOINT RightToe_End
						{
							OFFSET 1.784700 -0.561700 9.474800
							CHANNELS 3 Xrotation Yrotation Zrotation
							End Site
							{
								OFFSET 0 0 0
							}
						}
					}
				}
			}
		}
	}
	JOINT Spine_virtual
	{
		OFFSET 0.000000 0.000000 0.000000
		CHANNELS 3 Xrotation Yrotation Zrotation
		JOINT Spine
		{
			OFFSET 0.072000 7.257294 -0.789700
			CHANNELS 3 Xrotation Yrotation Zrotation
			JOINT Spine1
			{
				OFFSET 0.000000 12.508769 -0.658067
				CHANNELS 3 Xrotation Yrotation Zrotation
				JOINT Spine1_split
				{
					OFFSET 0.000000 12.508769 -0.658067
					CHANNELS 3 Xrotation Yrotation Zrotation
					JOINT Spine2
					{
						OFFSET 0.000000 12.508769 -0.658067
						CHANNELS 3 Xrotation Yrotation Zrotation
						JOINT Neck_virtual
						{
							OFFSET 0.000000 0.000000 0.000000
							CHANNELS 3 Xrotation Yrotation Zrotation
							JOINT Neck
							{
								OFFSET 0.000000 14.033295 7.520400
								CHANNELS 3 Xrotation Yrotation Zrotation
								JOINT Head
								{
									OFFSET 0.000000 8.198502 5.703100
									CHANNELS 3 Xrotation Yrotation Zrotation
									JOINT HeadTop_End
									{
										OFFSET 0.000000 17.760803 13.332701
										CHANNELS 3 Xrotation Yrotation Zrotation
										End Site
										{
											OFFSET 0 0 0
										}
									}
								}
							}
						}
						JOINT LeftShoulder_virtual
						{
							OFFSET 0.000000 0.000000 0.000000
							CHANNELS 3 Xrotation Yrotation Zrotation
							JOINT LeftShoulder
							{
								OFFSET 6.292450 5.785301 -0.669000
								CHANNELS 3 Xrotation Yrotation Zrotation
								JOINT LeftShoulder_split
								{
									OFFSET 6.292450 5.785301 -0.669000
									CHANNELS 3 Xrotation Yrotation Zrotation
									JOINT LeftArm
									{
										OFFSET 13.907140 -6.093903 1.965100
										CHANNELS 3 Xrotation Yrotation Zrotation
										JOINT LeftForeArm
										{
											OFFSET 34.140198 0.000000 0.000000
											CHANNELS 3 Xrotation Yrotation Zrotation
											JOINT LeftHand
											{
												OFFSET 40.960209 0.000000 0.000000
												CHANNELS 3 Xrotation Yrotation Zrotation
												End Site
												{
													OFFSET 0 0 0
												}
											}
										}
									}
								}
							}
						}
						JOINT RightShoulder_virtual
						{
							OFFSET 0.000000 0.000000 0.000000
							CHANNELS 3 Xrotation Yrotation Zrotation
							JOINT RightShoulder
							{
								OFFSET -6.292450 5.785301 -0.669000
								CHANNELS 3 Xrotation Yrotation Zrotation
								JOINT RightShoulder_split
								{
									OFFSET -6.292450 5.785301 -0.669000
									CHANNELS 3 Xrotation Yrotation Zrotation
									JOINT RightArm
									{
										OFFSET -13.907140 -6.093903 1.965100
										CHANNELS 3 Xrotation Yrotation Zrotation
										JOINT RightForeArm
										{
											OFFSET -34.140198 0.000000 0.000000
											CHANNELS 3 Xrotation Yrotation Zrotation
											JOINT RightHand
											{
												OFFSET -40.960209 0.000000 0.000000
												CHANNELS 3 Xrotation Yrotation Zrotation
												End Site
												{
													OFFSET 0 0 0
												}
											}
										}
									}
								}
							}
						}
					}
				}
			}
		}
	}
}
MOTION
Frames: 10
Frame Time: 0.03333333
0.863788 113.123970 -3.872925 0.000000 0.000000 0.000000 -2.233876 4.934262 1.295935 -10.247314 8.032542 7.965182 22.991732 -0.505218 -1.952207 -12.152779 0.935345 -4.261449 -0.847535 0.060590 0.196903 0.000000 0.000000 0.000000 -2.506457 4.464500 0.935312 -4.628281 -3.457726 -5.218900 21.438241 -8.225943 2.261326 -9.012183 -19.607050 3.094376 -3.037925 0.074383 0.060919 0.000000 0.000000 0.000000 -1.817622 3.316119 0.667078 -1.255652 -1.656871 -2.581940 0.857434 -0.187819 1.921266 1.566847 -1.184902 -0.130392 0.000000 0.000000 0.000000 0.204414 -0.113958 1.484531 7.449713 1.606354 -0.920734 -2.961466 0.416432 2.108044 0.000000 0.000000 0.000000 0.706591 0.287472 1.069373 6.722816 -24.893058 -5.945935 -0.631272 -2.219508 -1.646722 7.500164 4.938510 -79.678186 -2.317380 -16.381930 1.680654 0.000000 0.000000 0.000000 0.605529 0.239033 2.052420 1.954506 -5.946226 9.250523 0.853946 5.584214 -0.897310 6.779348 17.788077 73.156920 1.469708 15.020933 -0.645262 0.000000 0.000000 0.000000 
0.721650 113.092766 -4.016052 0.000000 0.000000 0.000000 -2.200702 5.063892 1.301555 -10.230215 8.174505 7.979653 22.981536 -0.542658 -2.001676 -12.207442 0.891778 -4.201122 -0.829258 0.058378 0.208503 0.000000 0.000000 0.000000 -2.457591 4.540091 0.942006 -4.669219 -3.520761 -5.168082 21.517860 -8.309576 2.280880 -9.073809 -19.589824 2.962199 -2.950376 0.088045 0.047254 0.000000 0.000000 0.000000 -1.789836 3.156832 0.776171 -1.310755 -1.656753 -2.625589 0.807187 -0.213010 1.885464 1.517835 -1.172933 -0.123162 0.000000 0.000000 0.000000 0.201766 -0.108611 1.446896 7.562386 1.649072 -1.076320 -2.917153 0.552389 1.972282 0.000000 0.000000 0.000000 0.683442 0.269933 1.041904 6.773852 -24.893827 -5.979777 -0.590842 -2.014998 -1.872684 7.384696 4.665338 -79.818929 -2.336254 -16.602320 1.657450 0.000000 0.000000 0.000000 0.574667 0.229620 2.066582 1.924448 -5.956139 9.232179 0.765948 5.898990 -0.958281 6.979995 17.669807 73.110843 1.523918 14.985712 -0.714092 0.000000 0.000000 0.000000 
0.563542 113.031815 -4.062061 0.000000 0.000000 0.000000 -2.224589 5.170025 1.292231 -10.181037 8.317623 8.017733 22.916601 -0.562269 -2.009850 -12.213584 0.888151 -4.159318 -0.833622 0.056802 0.208219 0.000000 0.000000 0.000000 -2.384581 4.581209 0.942024 -4.741649 -3.448038 -5.163642 21.674878 -8.343489 2.327676 -8.862924 -19.542520 3.019061 -3.136423 0.108267 0.009411 0.000000 0.000000 0.000000 -1.796138 3.173593 0.872469 -1.339697 -1.629012 -2.650030 0.716256 -0.240082 1.840273 1.437834 -1.055530 -0.032659 0.000000 0.000000 0.000000 0.188191 -0.109781 1.422486 7.585777 1.690649 -1.297765 -2.926395 0.522091 1.879198 0.000000 0.000000 0.000000 0.635354 0.265943 1.030101 6.794927 -24.960844 -6.075140 -0.640774 -1.834883 -2.101941 7.503494 4.004130 -79.736250 -2.197812 -16.792288 1.648683 0.000000 0.000000 0.000000 0.543363 0.213107 2.051036 1.862330 -5.902329 9.289945 0.856707 6.100445 -1.092521 6.956273 17.685004 72.880379 1.525622 15.038582 -0.704164 0.000000 0.000000 0.000000 
0.428811 112.964073 -3.984871 0.000000 0.000000 0.000000 -2.290948 5.199919 1.258349 -10.108886 8.441988 8.077989 22.792293 -0.533400 -1.970512 -12.173037 0.911317 -4.135137 -0.852541 0.057114 0.195610 0.000000 0.000000 0.000000 -2.280070 4.632130 0.923564 -4.793670 -3.289204 -5.176096 21.841325 -8.349097 2.380821 -8.538885 -19.472647 3.144432 -3.479483 0.135196 -0.035582 0.000000 0.000000 0.000000 -1.794884 3.335667 0.924667 -1.322805 -1.595188 -2.652585 0.594998 -0.273773 1.794490 1.416715 -1.015781 0.131998 0.000000 0.000000 0.000000 0.161676 -0.116971 1.419431 7.543577 1.761610 -1.528999 -2.960935 0.334631 1.848383 0.000000 0.000000 0.000000 0.554732 0.267571 1.041178 6.791515 -25.079201 -6.172426 -0.730393 -1.637062 -2.348928 7.805348 3.135021 -79.392596 -1.943587 -16.946567 1.615782 0.000000 0.000000 0.000000 0.492568 0.180276 2.011480 1.774366 -5.786999 9.451126 1.088919 6.104715 -1.171600 6.767909 17.799587 72.552202 1.475358 15.263880 -0.629387 0.000000 0.000000 0.000000 
0.342319 112.916298 -3.821026 0.000000 0.000000 0.000000 -2.332042 5.173407 1.189450 -10.027951 8.494187 8.159298 22.632353 -0.446056 -1.873277 -12.105894 0.931881 -4.130311 -0.883791 0.059557 0.178506 0.000000 0.000000 0.000000 -2.166246 4.696053 0.872444 -4.831987 -3.148588 -5.178680 22.004955 -8.383080 2.432948 -8.253682 -19.407986 3.197445 -3.754978 0.169301 -0.073937 0.000000 0.000000 0.000000 -1.753887 3.531331 0.911948 -1.239689 -1.571038 -2.624784 0.457163 -0.316903 1.756429 1.464114 -1.057019 0.225330 0.000000 0.000000 0.000000 0.110968 -0.134462 1.438591 7.455757 1.853601 -1.708209 -3.019824 0.043394 1.878394 0.000000 0.000000 0.000000 0.451230 0.269065 1.074874 6.789429 -25.223660 -6.165826 -0.746748 -1.462335 -2.587217 8.230968 2.215417 -78.814741 -1.660347 -17.155475 1.517427 0.000000 0.000000 0.000000 0.407631 0.125636 1.957404 1.667283 -5.630849 9.688955 1.397304 5.953859 -1.208004 6.471177 17.993657 72.209655 1.390600 15.799491 -0.489918 0.000000 0.000000 0.000000 
0.307995 112.887909 -3.639755 0.000000 0.000000 0.000000 -2.314759 5.121799 1.083198 -9.937533 8.408275 8.237667 22.483441 -0.293383 -1.705978 -12.056604 0.921489 -4.134047 -0.913954 0.063022 0.163858 0.000000 0.000000 0.000000 -2.069529 4.746183 0.790792 -4.900631 -3.117030 -5.164244 22.233123 -8.448740 2.493832 -8.056248 -19.341591 3.197856 -3.899965 0.206439 -0.100869 0.000000 0.000000 0.000000 -1.672075 3.673883 0.825705 -1.065307 -1.566031 -2.566236 0.316618 -0.372405 1.728911 1.597742 -1.110218 0.302955 0.000000 0.000000 0.000000 0.023617 -0.161456 1.471035 7.341422 1.967517 -1.810427 -3.071103 -0.310621 1.969721 0.000000 0.000000 0.000000 0.324876 0.267398 1.126414 6.809611 -25.371588 -5.989672 -0.624778 -1.338902 -2.775358 8.645024 1.384272 -78.109313 -1.402373 -17.396191 1.336638 0.000000 0.000000 0.000000 0.284982 0.057652 1.896878 1.552217 -5.456264 9.943809 1.790676 5.716286 -1.173008 6.108730 18.231745 71.932636 1.301261 16.640711 -0.300467 0.000000 0.000000 0.000000 
0.347081 112.855042 -3.496712 0.000000 0.000000 0.000000 -2.244033 5.053225 0.955559 -9.823018 8.139589 8.267611 22.408582 -0.062658 -1.473638 -12.086652 0.864903 -4.148568 -0.937638 0.069657 0.150006 0.000000 0.000000 0.000000 -2.028696 4.735359 0.687785 -5.040047 -3.263239 -5.148806 22.616039 -8.488796 2.559802 -7.943898 -19.217646 3.269738 -4.073744 0.243465 -0.133589 0.000000 0.000000 0.000000 -1.566924 3.680958 0.686167 -0.774858 -1.586888 -2.481907 0.191256 -0.422892 1.716593 1.805791 -1.063392 0.270121 0.000000 0.000000 0.000000 -0.092965 -0.189317 1.505806 7.205195 2.093337 -1.821448 -3.074613 -0.687620 2.093790 0.000000 0.000000 0.000000 0.190775 0.266227 1.188128 6.860051 -25.460217 -5.633204 -0.375882 -1.274020 -2.914983 8.906251 0.696306 -77.440719 -1.181544 -17.728408 1.093239 0.000000 0.000000 0.000000 0.150823 -0.006252 1.833556 1.431862 -5.280951 10.165190 2.225911 5.466816 -1.111304 5.659344 18.422115 71.701291 1.233172 17.578984 -0.092078 0.000000 0.000000 0.000000 
0.440478 112.773842 -3.406204 0.000000 0.000000 0.000000 -2.155953 4.913714 0.843899 -9.689105 7.668796 8.216876 22.431854 0.256481 -1.185544 -12.206159 0.769010 -4.190458 -0.964195 0.079762 0.134545 0.000000 0.000000 0.000000 -2.080181 4.631833 0.597031 -5.252363 -3.578542 -5.147636 23.208756 -8.477561 2.618459 -7.971910 -18.996791 3.457718 -4.348275 0.280052 -0.183515 0.000000 0.000000 0.000000 -1.520668 3.493897 0.535953 -0.353394 -1.645908 -2.388033 0.089928 -0.452068 1.712591 1.968183 -0.904044 0.113100 0.000000 0.000000 0.000000 -0.239815 -0.218763 1.529984 7.067398 2.187417 -1.749568 -3.000599 -1.053949 2.219504 0.000000 0.000000 0.000000 0.068768 0.264799 1.239551 6.935036 -25.468491 -5.127225 -0.044249 -1.205674 -2.985831 8.884907 0.205679 -76.963958 -0.995986 -18.164842 0.828270 0.000000 0.000000 0.000000 0.043289 -0.043051 1.777083 1.313096 -5.097143 10.279483 2.532521 5.174681 -1.017693 5.054204 18.478802 71.403610 1.184735 18.358083 0.124742 0.000000 0.000000 0.000000 
0.564247 112.594162 -3.390610 0.000000 0.000000 0.000000 -2.097698 4.600222 0.800877 -9.540917 7.086423 8.067054 22.565480 0.686286 -0.870843 -12.416761 0.636406 -4.273771 -0.990670 0.090605 0.114094 0.000000 0.000000 0.000000 -2.207023 4.383051 0.555081 -5.540374 -4.029699 -5.180799 23.999388 -8.443992 2.660589 -8.225324 -18.651785 3.663619 -4.608823 0.317210 -0.240525 0.000000 0.000000 0.000000 -1.606369 3.106844 0.418116 0.197640 -1.771194 -2.323710 0.022326 -0.458411 1.704924 2.005421 -0.671803 -0.003464 0.000000 0.000000 0.000000 -0.387472 -0.246373 1.537372 6.963121 2.237945 -1.628319 -2.845748 -1.377350 2.320858 0.000000 0.000000 0.000000 -0.031110 0.259179 1.260815 7.016583 -25.400630 -4.560448 0.368486 -1.040477 -2.991482 8.541649 0.042543 -76.746082 -0.797909 -18.715393 0.590757 0.000000 0.000000 0.000000 -0.013544 -0.045889 1.728625 1.194950 -4.886200 10.240153 2.630908 4.915145 -0.785105 4.229748 18.251529 70.724225 1.153515 18.658130 0.333684 0.000000 0.000000 0.000000 
0.689749 112.340004 -3.411911 0.000000 0.000000 0.000000 -2.078414 3.997580 0.847048 -9.365164 6.509840 7.839012 22.815390 1.226519 -0.561543 -12.671124 0.474946 -4.425070 -1.020106 0.100158 0.093016 0.000000 0.000000 0.000000 -2.380979 3.945911 0.584703 -5.925646 -4.563614 -5.269814 24.933997 -8.421177 2.679184 -8.739081 -18.162820 3.782101 -4.769178 0.353734 -0.287699 0.000000 0.000000 0.000000 -1.847834 2.494522 0.355385 0.848158 -1.991799 -2.313334 -0.005668 -0.448830 1.686724 1.900543 -0.399092 -0.149824 0.000000 0.000000 0.000000 -0.508883 -0.279834 1.527762 6.940919 2.282873 -1.500508 -2.636971 -1.614540 2.386983 0.000000 0.000000 0.000000 -0.086517 0.240430 1.245482 7.104195 -25.298469 -4.001006 0.783523 -0.800648 -2.975180 7.980269 0.336305 -76.729088 -0.620723 -19.465291 0.409270 0.000000 0.000000 0.000000 0.002502 -0.030116 1.677413 1.064020 -4.629334 10.018414 2.563044 4.712623 -0.491747 3.155109 17.663597 69.244512 1.139002 18.390320 0.532408 0.000000 0.000000 0.000000 
